<svg xmlns="http://www.w3.org/2000/svg" width="32" height="32" viewBox="0 0 32 32" role="img" aria-label="Fill">
  <rect width="32" height="32" fill="none"/>
  <path d="M9.5 11.5l7-4 6 6-7 7z" fill="#ffffff" stroke="#242424" stroke-width="1.5" stroke-linejoin="round"/>
  <path d="M11.5 12.5l4-2.5 4.5 4.5-4 2.5z" fill="#E6F6FA"/>
  <path d="M15.5 20.5c3-1.5 6.5-1.5 9.5 0v4H11.5v-2.2c1.2-.2 2.5-.8 4-1.8z" fill="#ffb900" stroke="#242424" stroke-width="1.5" stroke-linejoin="round"/>
  <path d="M18.5 8.5l-3.5 3.5" fill="none" stroke="#0F6D8C" stroke-width="1.5" stroke-linecap="round"/>
  <path d="M26 16.5c1.4 1.7 2 2.8 2 3.6 0 1.1-.8 1.9-2 1.9s-2-.8-2-1.9c0-.8.6-1.9 2-3.6z" fill="#0F6D8C"/>
</svg>
