<svg xmlns="http://www.w3.org/2000/svg" width="32" height="32" viewBox="0 0 32 32" role="img" aria-label="Styles" shape-rendering="crispEdges">
<rect width="32" height="32" fill="none"/>
<rect x="6" y="8" width="20" height="16" rx="1" fill="#ffffff"/>
<path d="M7 8h18v1H7zm18 1h1v14h-1zM7 23h18v1H7zM6 9h1v14H6z" fill="#242424"/>
<rect x="9" y="11" width="6" height="4" fill="#d9eadf"/>
<rect x="17" y="11" width="6" height="4" fill="#fff2b8"/>
<rect x="9" y="17" width="6" height="4" fill="#dcecff"/>
<rect x="17" y="17" width="6" height="4" fill="#ffd7d7"/>
<path d="M16 5l1.6 3.1 3.4.5-2.5 2.4.6 3.3-3.1-1.6-3.1 1.6.6-3.3L11 8.6l3.4-.5z" fill="#107c41"/>
</svg>
