<svg xmlns="http://www.w3.org/2000/svg" width="32" height="32" viewBox="0 0 32 32" role="img" aria-label="Contact Support">
  <rect width="32" height="32" fill="none"/>
  <path d="M8 17v-3.5C8 9.4 11.4 6 15.5 6h1C20.6 6 24 9.4 24 13.5V17" fill="none" stroke="#242424" stroke-width="1.5" stroke-linecap="round"/>
  <rect x="5.5" y="15" width="5" height="7" rx="2" fill="#ffffff" stroke="#217346" stroke-width="1.4"/>
  <rect x="21.5" y="15" width="5" height="7" rx="2" fill="#ffffff" stroke="#217346" stroke-width="1.4"/>
  <path d="M24 22c-.8 3.2-3.5 4.5-7.2 4.5h-2.3" fill="none" stroke="#242424" stroke-width="1.4" stroke-linecap="round"/>
  <circle cx="13.2" cy="26.5" r="1.5" fill="#217346"/>
  <path d="M13 12h6a3 3 0 0 1 3 3v1.5a3 3 0 0 1-3 3h-2.6L13 22v-2.5h-.2a3 3 0 0 1-2.8-3V15a3 3 0 0 1 3-3z" fill="#f5f9ff" stroke="#4472c4" stroke-width="1.1" stroke-linejoin="round"/>
</svg>
