<svg xmlns="http://www.w3.org/2000/svg" width="54" height="54" viewBox="0 0 54 54" role="img" aria-label="Page Setup">
  <defs>
    <style>
      .s{fill:none;stroke:#242424;stroke-width:2.2;stroke-linecap:round;stroke-linejoin:round;vector-effect:non-scaling-stroke}
      .t{font-family:Segoe UI,Arial,sans-serif;font-weight:700;fill:#242424}
      .tm{font-family:Segoe UI,Arial,sans-serif;font-weight:600;fill:#242424}
      .green{fill:#107c41}
      .green2{fill:#dff6dd}
      .blue{fill:#0078d4}
      .yellow{fill:#ffb900}
      .orange{fill:#f7630c}
      .red{fill:#d32f2f}
      .purple{fill:#8b5cf6}
      .gray{fill:#5c5c5c}
      .paper{fill:#ffffff}
      .none{fill:none}
</style>
  </defs>
  <rect width="54" height="54" fill="none"/>
  <g><path fill="#f8fafc" stroke="#202124" stroke-width="1.7" d="M9.72 6.48h22.68l7.56 7.56v31.32H9.72z"/><polygon points="35.64,27 37.38,29.13 39.01,29.8 41.75,29.53 41.48,32.27 42.15,33.9 44.28,35.64 42.15,37.38 41.48,39.01 41.75,41.75 39.01,41.48 37.38,42.15 35.64,44.28 33.9,42.15 32.27,41.48 29.53,41.75 29.8,39.01 29.13,37.38 27,35.64 29.13,33.9 29.8,32.27 29.53,29.53 32.27,29.8 33.9,29.13" fill="#f8fafc" stroke="#202124" stroke-width="2" stroke-linejoin="round"/><circle cx="35.64" cy="35.64" r="2.42" fill="none" stroke="#202124" stroke-width="2"/>  </g>
</svg>

