<svg xmlns="http://www.w3.org/2000/svg" width="54" height="54" viewBox="0 0 54 54" role="img" aria-label="Page Setup">
  <defs>
    <style>
      .s,.r,.line,.thin,.heavy{fill:none;stroke:#242424;stroke-width:1.0;stroke-linecap:round;stroke-linejoin:round;vector-effect:non-scaling-stroke}
      .g,.green{fill:#107c41}
      .g2,.palegreen,.green2{fill:#dff6dd}
      .b,.blue{fill:#0078d4}
      .o,.orange{fill:#f7630c}
      .y,.yellow,.paleyellow{fill:#ffb900}
      .rd,.red{fill:#d32f2f}
      .p,.purple{fill:#8b5cf6}
      .w,.paper,.bg{fill:#ffffff}
      .k,.gray{fill:#242424}
      .f,.soft{fill:#f3f2f1}
      .t,.txtb{font-family:'Segoe UI',Arial,sans-serif;fill:#242424;font-weight:700;text-anchor:middle;dominant-baseline:central}
      .tm,.txt{font-family:'Segoe UI',Arial,sans-serif;fill:#242424;font-weight:600;text-anchor:middle;dominant-baseline:central}
      .greenLine{fill:none;stroke:#107c41;stroke-width:1.0;stroke-linecap:round;stroke-linejoin:round;vector-effect:non-scaling-stroke}
      .blueLine{fill:none;stroke:#0078d4;stroke-width:1.0;stroke-linecap:round;stroke-linejoin:round;vector-effect:non-scaling-stroke}
      .grid{fill:none;stroke:#5c5c5c;stroke-width:1.0;stroke-linecap:square;vector-effect:non-scaling-stroke}
      .paleblue{fill:#dcecff}
      .palered{fill:#ffd7d7}
      .none{fill:none}
</style>
  </defs>
  <rect width="54" height="54" fill="none"/>
  <g><path fill="#f8fafc" stroke="#202124" stroke-width="1.7" d="M9.72 6.48h22.68l7.56 7.56v31.32H9.72z"/><polygon points="35.64,27 37.38,29.13 39.01,29.8 41.75,29.53 41.48,32.27 42.15,33.9 44.28,35.64 42.15,37.38 41.48,39.01 41.75,41.75 39.01,41.48 37.38,42.15 35.64,44.28 33.9,42.15 32.27,41.48 29.53,41.75 29.8,39.01 29.13,37.38 27,35.64 29.13,33.9 29.8,32.27 29.53,29.53 32.27,29.8 33.9,29.13" fill="#f8fafc" stroke="#202124" stroke-width="2" stroke-linejoin="round"/><circle cx="35.64" cy="35.64" r="2.42" fill="none" stroke="#202124" stroke-width="2"/>  </g>
</svg>

