<svg xmlns="http://www.w3.org/2000/svg" width="32" height="32" viewBox="0 0 32 32" shape-rendering="crispEdges">
<rect width="32" height="32" fill="none"/>
<rect x="5" y="8" width="22" height="17" fill="#ffffff"/>
<rect x="5" y="8" width="22" height="1" fill="#202124"/>
<rect x="5" y="24" width="22" height="1" fill="#202124"/>
<rect x="5" y="8" width="1" height="17" fill="#202124"/>
<rect x="26" y="8" width="1" height="17" fill="#202124"/>
<rect x="9" y="12" width="7" height="4" fill="#d9eadf"/>
<rect x="18" y="12" width="6" height="4" fill="#fff2b8"/>
<rect x="9" y="18" width="7" height="4" fill="#dcecff"/>
<rect x="18" y="18" width="6" height="4" fill="#ffd7d7"/>
<path d="M17 4l1.6 3.1 3.4.5-2.5 2.4.6 3.3-3.1-1.6-3.1 1.6.6-3.3L12 7.6l3.4-.5z" fill="#217346"/>
</svg>
